# xmcd CD database file
#
# Track frame offsets:
#	150
#	17925
#	33325
#	55875
#	71335
#	86875
#	107150
#	126705
#	148115
#	167525
#	187765
#	207780
#	223015
#	247490
#
# Disc length: 4424 seconds
#
# Revision: 1
# Processed by: cddbd v1.5.1PL0 Copyright (c) Steve Scherf et al.
# Submitted via: CDex 1.51
#
DISCID=d611460e
DTITLE=She Daisy - Knock On The Sky
DYEAR=2002
DGENRE=Country
TTITLE0=Mine All Mine
TTITLE1=I'm Lit
TTITLE2=Man Goin' Down
TTITLE3=Get Over Yourself
TTITLE4=Rush
TTITLE5=I Wish I Were The Rain
TTITLE6=Repent
TTITLE7=Everybody Wants You
TTITLE8=Now
TTITLE9=All Over You
TTITLE10=The First To Let Go
TTITLE11=Turn Me On
TTITLE12=Keep Me
TTITLE13=Bonus Track
EXTD=YEAR: 2002
EXTT0=
EXTT1=
EXTT2=
EXTT3=
EXTT4=
EXTT5=
EXTT6=
EXTT7=
EXTT8=
EXTT9=
EXTT10=
EXTT11=
EXTT12=
EXTT13=
PLAYORDER=
